<svg width="1464" height="362" viewBox="0 0 1464 362" fill="none" xmlns="http://www.w3.org/2000/svg">
<g clip-path="url(#clip0)">
<rect width="1464" height="362" fill="white"/>
<rect width="1464" height="362" transform="matrix(1 0 0 -1 0 362)" fill="#F8F8FF"/>
<rect width="1464" height="362" transform="matrix(1 0 0 -1 0 362)" fill="url(#paint0_linear)" fill-opacity="0.8"/>
<mask id="mask0" mask-type="alpha" maskUnits="userSpaceOnUse" x="-92" y="48" width="1925" height="301">
<circle r="1.58952" transform="matrix(-1 -8.74228e-08 -8.74228e-08 1 1271.49 49.7536)" fill="#1828A6"/>
<circle r="1.58952" transform="matrix(-1 -8.74228e-08 -8.74228e-08 1 1271.49 211.943)" fill="#1828A6"/>
<circle r="1.58952" transform="matrix(-1 -8.74228e-08 -8.74228e-08 1 1026.78 49.7536)" fill="#1828A6"/>
<circle r="1.58952" transform="matrix(-1 -8.74228e-08 -8.74228e-08 1 1026.78 211.943)" fill="#1828A6"/>
<circle r="1.58952" transform="matrix(-1 -8.74228e-08 -8.74228e-08 1 1306.46 49.7536)" fill="#1828A6"/>
<circle r="1.58952" transform="matrix(-1 -8.74228e-08 -8.74228e-08 1 1306.46 211.943)" fill="#1828A6"/>
<circle r="1.58952" transform="matrix(-1 -8.74228e-08 -8.74228e-08 1 1061.75 49.7536)" fill="#1828A6"/>
<circle r="1.58952" transform="matrix(-1 -8.74228e-08 -8.74228e-08 1 1061.75 211.943)" fill="#1828A6"/>
<circle r="1.58952" transform="matrix(-1 -8.74228e-08 -8.74228e-08 1 1341.43 49.7536)" fill="#1828A6"/>
<circle r="1.58952" transform="matrix(-1 -8.74228e-08 -8.74228e-08 1 1341.43 211.943)" fill="#1828A6"/>
<circle r="1.58952" transform="matrix(-1 -8.74228e-08 -8.74228e-08 1 1096.72 49.7536)" fill="#1828A6"/>
<circle r="1.58952" transform="matrix(-1 -8.74228e-08 -8.74228e-08 1 1096.72 211.943)" fill="#1828A6"/>
<circle r="1.58952" transform="matrix(-1 -8.74228e-08 -8.74228e-08 1 1271.49 103.797)" fill="#1828A6"/>
<circle r="1.58952" transform="matrix(-1 -8.74228e-08 -8.74228e-08 1 1271.49 265.987)" fill="#1828A6"/>
<circle r="1.58952" transform="matrix(-1 -8.74228e-08 -8.74228e-08 1 1026.78 103.797)" fill="#1828A6"/>
<circle r="1.58952" transform="matrix(-1 -8.74228e-08 -8.74228e-08 1 1026.78 265.987)" fill="#1828A6"/>
<circle r="1.58952" transform="matrix(-1 -8.74228e-08 -8.74228e-08 1 1306.46 103.797)" fill="#1828A6"/>
<circle r="1.58952" transform="matrix(-1 -8.74228e-08 -8.74228e-08 1 1306.46 265.987)" fill="#1828A6"/>
<circle r="1.58952" transform="matrix(-1 -8.74228e-08 -8.74228e-08 1 1061.75 103.797)" fill="#1828A6"/>
<circle r="1.58952" transform="matrix(-1 -8.74228e-08 -8.74228e-08 1 1061.75 265.987)" fill="#1828A6"/>
<circle r="1.58952" transform="matrix(-1 -8.74228e-08 -8.74228e-08 1 1341.43 103.797)" fill="#1828A6"/>
<circle r="1.58952" transform="matrix(-1 -8.74228e-08 -8.74228e-08 1 1341.43 265.987)" fill="#1828A6"/>
<circle r="1.58952" transform="matrix(-1 -8.74228e-08 -8.74228e-08 1 1096.72 103.797)" fill="#1828A6"/>
<circle r="1.58952" transform="matrix(-1 -8.74228e-08 -8.74228e-08 1 1096.72 265.987)" fill="#1828A6"/>
<circle r="1.58952" transform="matrix(-1 -8.74228e-08 -8.74228e-08 1 1271.49 76.7756)" fill="#1828A6"/>
<circle r="1.58952" transform="matrix(-1 -8.74228e-08 -8.74228e-08 1 1271.49 238.965)" fill="#1828A6"/>
<circle r="1.58952" transform="matrix(-1 -8.74228e-08 -8.74228e-08 1 1026.78 76.7753)" fill="#1828A6"/>
<circle r="1.58952" transform="matrix(-1 -8.74228e-08 -8.74228e-08 1 1026.78 238.965)" fill="#1828A6"/>
<circle r="1.58952" transform="matrix(-1 -8.74228e-08 -8.74228e-08 1 1306.46 76.7753)" fill="#1828A6"/>
<circle r="1.58952" transform="matrix(-1 -8.74228e-08 -8.74228e-08 1 1306.46 238.965)" fill="#1828A6"/>
<circle r="1.58952" transform="matrix(-1 -8.74228e-08 -8.74228e-08 1 1061.75 76.7753)" fill="#1828A6"/>
<circle r="1.58952" transform="matrix(-1 -8.74228e-08 -8.74228e-08 1 1061.75 238.965)" fill="#1828A6"/>
<circle r="1.58952" transform="matrix(-1 -8.74228e-08 -8.74228e-08 1 1341.43 76.7753)" fill="#1828A6"/>
<circle r="1.58952" transform="matrix(-1 -8.74228e-08 -8.74228e-08 1 1341.43 238.965)" fill="#1828A6"/>
<circle r="1.58952" transform="matrix(-1 -8.74228e-08 -8.74228e-08 1 1096.72 76.7753)" fill="#1828A6"/>
<circle r="1.58952" transform="matrix(-1 -8.74228e-08 -8.74228e-08 1 1096.72 238.965)" fill="#1828A6"/>
<circle r="1.58952" transform="matrix(-1 -8.74228e-08 -8.74228e-08 1 1271.49 130.819)" fill="#1828A6"/>
<circle r="1.58952" transform="matrix(-1 -8.74228e-08 -8.74228e-08 1 1271.49 293.008)" fill="#1828A6"/>
<circle r="1.58952" transform="matrix(-1 -8.74228e-08 -8.74228e-08 1 1026.78 130.819)" fill="#1828A6"/>
<circle r="1.58952" transform="matrix(-1 -8.74228e-08 -8.74228e-08 1 1026.78 293.008)" fill="#1828A6"/>
<circle r="1.58952" transform="matrix(-1 -8.74228e-08 -8.74228e-08 1 1306.46 130.819)" fill="#1828A6"/>
<circle r="1.58952" transform="matrix(-1 -8.74228e-08 -8.74228e-08 1 1306.46 293.008)" fill="#1828A6"/>
<circle r="1.58952" transform="matrix(-1 -8.74228e-08 -8.74228e-08 1 1061.75 130.819)" fill="#1828A6"/>
<circle r="1.58952" transform="matrix(-1 -8.74228e-08 -8.74228e-08 1 1061.75 293.008)" fill="#1828A6"/>
<circle r="1.58952" transform="matrix(-1 -8.74228e-08 -8.74228e-08 1 1341.43 130.819)" fill="#1828A6"/>
<circle r="1.58952" transform="matrix(-1 -8.74228e-08 -8.74228e-08 1 1341.43 293.008)" fill="#1828A6"/>
<circle r="1.58952" transform="matrix(-1 -8.74228e-08 -8.74228e-08 1 1096.72 130.819)" fill="#1828A6"/>
<circle r="1.58952" transform="matrix(-1 -8.74228e-08 -8.74228e-08 1 1096.72 293.008)" fill="#1828A6"/>
<circle r="1.58952" transform="matrix(-1 -8.74228e-08 -8.74228e-08 1 1271.49 157.841)" fill="#1828A6"/>
<circle r="1.58952" transform="matrix(-1 -8.74228e-08 -8.74228e-08 1 1271.49 320.03)" fill="#1828A6"/>
<circle r="1.58952" transform="matrix(-1 -8.74228e-08 -8.74228e-08 1 1026.78 157.841)" fill="#1828A6"/>
<circle r="1.58952" transform="matrix(-1 -8.74228e-08 -8.74228e-08 1 1026.78 320.03)" fill="#1828A6"/>
<circle r="1.58952" transform="matrix(-1 -8.74228e-08 -8.74228e-08 1 1306.46 157.841)" fill="#1828A6"/>
<circle r="1.58952" transform="matrix(-1 -8.74228e-08 -8.74228e-08 1 1306.46 320.03)" fill="#1828A6"/>
<circle r="1.58952" transform="matrix(-1 -8.74228e-08 -8.74228e-08 1 1061.75 157.841)" fill="#1828A6"/>
<circle r="1.58952" transform="matrix(-1 -8.74228e-08 -8.74228e-08 1 1061.75 320.03)" fill="#1828A6"/>
<circle r="1.58952" transform="matrix(-1 -8.74228e-08 -8.74228e-08 1 1341.43 157.841)" fill="#1828A6"/>
<circle r="1.58952" transform="matrix(-1 -8.74228e-08 -8.74228e-08 1 1341.43 320.03)" fill="#1828A6"/>
<circle r="1.58952" transform="matrix(-1 -8.74228e-08 -8.74228e-08 1 1096.72 157.841)" fill="#1828A6"/>
<circle r="1.58952" transform="matrix(-1 -8.74228e-08 -8.74228e-08 1 1096.72 320.03)" fill="#1828A6"/>
<circle r="1.58952" transform="matrix(-1 -8.74228e-08 -8.74228e-08 1 1271.49 184.862)" fill="#1828A6"/>
<circle r="1.58952" transform="matrix(-1 -8.74228e-08 -8.74228e-08 1 1271.49 347.052)" fill="#1828A6"/>
<circle r="1.58952" transform="matrix(-1 -8.74228e-08 -8.74228e-08 1 1026.78 184.862)" fill="#1828A6"/>
<circle r="1.58952" transform="matrix(-1 -8.74228e-08 -8.74228e-08 1 1026.78 347.052)" fill="#1828A6"/>
<circle r="1.58952" transform="matrix(-1 -8.74228e-08 -8.74228e-08 1 1306.46 184.862)" fill="#1828A6"/>
<circle r="1.58952" transform="matrix(-1 -8.74228e-08 -8.74228e-08 1 1306.46 347.052)" fill="#1828A6"/>
<circle r="1.58952" transform="matrix(-1 -8.74228e-08 -8.74228e-08 1 1061.75 184.862)" fill="#1828A6"/>
<circle r="1.58952" transform="matrix(-1 -8.74228e-08 -8.74228e-08 1 1061.75 347.052)" fill="#1828A6"/>
<circle r="1.58952" transform="matrix(-1 -8.74228e-08 -8.74228e-08 1 1341.43 184.862)" fill="#1828A6"/>
<circle r="1.58952" transform="matrix(-1 -8.74228e-08 -8.74228e-08 1 1341.43 347.052)" fill="#1828A6"/>
<circle r="1.58952" transform="matrix(-1 -8.74228e-08 -8.74228e-08 1 1096.72 184.862)" fill="#1828A6"/>
<circle r="1.58952" transform="matrix(-1 -8.74228e-08 -8.74228e-08 1 1096.72 347.052)" fill="#1828A6"/>
<circle r="1.58952" transform="matrix(-1 -8.74228e-08 -8.74228e-08 1 1236.52 49.7536)" fill="#1828A6"/>
<circle r="1.58952" transform="matrix(-1 -8.74228e-08 -8.74228e-08 1 1236.52 211.943)" fill="#1828A6"/>
<circle r="1.58952" transform="matrix(-1 -8.74228e-08 -8.74228e-08 1 991.813 49.7536)" fill="#1828A6"/>
<circle r="1.58952" transform="matrix(-1 -8.74228e-08 -8.74228e-08 1 991.813 211.943)" fill="#1828A6"/>
<circle r="1.58952" transform="matrix(-1 -8.74228e-08 -8.74228e-08 1 1236.52 103.797)" fill="#1828A6"/>
<circle r="1.58952" transform="matrix(-1 -8.74228e-08 -8.74228e-08 1 1236.52 265.987)" fill="#1828A6"/>
<circle r="1.58952" transform="matrix(-1 -8.74228e-08 -8.74228e-08 1 991.813 103.797)" fill="#1828A6"/>
<circle r="1.58952" transform="matrix(-1 -8.74228e-08 -8.74228e-08 1 991.813 265.987)" fill="#1828A6"/>
<circle r="1.58952" transform="matrix(-1 -8.74228e-08 -8.74228e-08 1 1236.52 76.7753)" fill="#1828A6"/>
<circle r="1.58952" transform="matrix(-1 -8.74228e-08 -8.74228e-08 1 1236.52 238.965)" fill="#1828A6"/>
<circle r="1.58952" transform="matrix(-1 -8.74228e-08 -8.74228e-08 1 991.813 76.7756)" fill="#1828A6"/>
<circle r="1.58952" transform="matrix(-1 -8.74228e-08 -8.74228e-08 1 991.813 238.965)" fill="#1828A6"/>
<circle r="1.58952" transform="matrix(-1 -8.74228e-08 -8.74228e-08 1 1236.52 130.819)" fill="#1828A6"/>
<circle r="1.58952" transform="matrix(-1 -8.74228e-08 -8.74228e-08 1 1236.52 293.008)" fill="#1828A6"/>
<circle r="1.58952" transform="matrix(-1 -8.74228e-08 -8.74228e-08 1 991.813 130.819)" fill="#1828A6"/>
<circle r="1.58952" transform="matrix(-1 -8.74228e-08 -8.74228e-08 1 991.813 293.008)" fill="#1828A6"/>
<circle r="1.58952" transform="matrix(-1 -8.74228e-08 -8.74228e-08 1 1236.52 157.841)" fill="#1828A6"/>
<circle r="1.58952" transform="matrix(-1 -8.74228e-08 -8.74228e-08 1 1236.52 320.03)" fill="#1828A6"/>
<circle r="1.58952" transform="matrix(-1 -8.74228e-08 -8.74228e-08 1 991.813 157.841)" fill="#1828A6"/>
<circle r="1.58952" transform="matrix(-1 -8.74228e-08 -8.74228e-08 1 991.813 320.03)" fill="#1828A6"/>
<circle r="1.58952" transform="matrix(-1 -8.74228e-08 -8.74228e-08 1 1236.52 184.862)" fill="#1828A6"/>
<circle r="1.58952" transform="matrix(-1 -8.74228e-08 -8.74228e-08 1 1236.52 347.052)" fill="#1828A6"/>
<circle r="1.58952" transform="matrix(-1 -8.74228e-08 -8.74228e-08 1 991.813 184.862)" fill="#1828A6"/>
<circle r="1.58952" transform="matrix(-1 -8.74228e-08 -8.74228e-08 1 991.813 347.052)" fill="#1828A6"/>
<circle r="1.58952" transform="matrix(-1 -8.74228e-08 -8.74228e-08 1 1201.55 49.7536)" fill="#1828A6"/>
<circle r="1.58952" transform="matrix(-1 -8.74228e-08 -8.74228e-08 1 1201.55 211.943)" fill="#1828A6"/>
<circle r="1.58952" transform="matrix(-1 -8.74228e-08 -8.74228e-08 1 1446.26 49.7536)" fill="#1828A6"/>
<circle r="1.58952" transform="matrix(-1 -8.74228e-08 -8.74228e-08 1 956.843 49.7536)" fill="#1828A6"/>
<circle r="1.58952" transform="matrix(-1 -8.74228e-08 -8.74228e-08 1 1446.26 211.943)" fill="#1828A6"/>
<circle r="1.58952" transform="matrix(-1 -8.74228e-08 -8.74228e-08 1 956.843 211.943)" fill="#1828A6"/>
<circle r="1.58952" transform="matrix(-1 -8.74228e-08 -8.74228e-08 1 1201.55 103.797)" fill="#1828A6"/>
<circle r="1.58952" transform="matrix(-1 -8.74228e-08 -8.74228e-08 1 1201.55 265.987)" fill="#1828A6"/>
<circle r="1.58952" transform="matrix(-1 -8.74228e-08 -8.74228e-08 1 1446.26 103.797)" fill="#1828A6"/>
<circle r="1.58952" transform="matrix(-1 -8.74228e-08 -8.74228e-08 1 956.843 103.797)" fill="#1828A6"/>
<circle r="1.58952" transform="matrix(-1 -8.74228e-08 -8.74228e-08 1 1446.26 265.987)" fill="#1828A6"/>
<circle r="1.58952" transform="matrix(-1 -8.74228e-08 -8.74228e-08 1 956.843 265.987)" fill="#1828A6"/>
<circle r="1.58952" transform="matrix(-1 -8.74228e-08 -8.74228e-08 1 1201.55 76.7753)" fill="#1828A6"/>
<circle r="1.58952" transform="matrix(-1 -8.74228e-08 -8.74228e-08 1 1201.55 238.965)" fill="#1828A6"/>
<circle r="1.58952" transform="matrix(-1 -8.74228e-08 -8.74228e-08 1 1446.26 76.7753)" fill="#1828A6"/>
<circle r="1.58952" transform="matrix(-1 -8.74228e-08 -8.74228e-08 1 956.843 76.7753)" fill="#1828A6"/>
<circle r="1.58952" transform="matrix(-1 -8.74228e-08 -8.74228e-08 1 1446.26 238.965)" fill="#1828A6"/>
<circle r="1.58952" transform="matrix(-1 -8.74228e-08 -8.74228e-08 1 956.843 238.965)" fill="#1828A6"/>
<circle r="1.58952" transform="matrix(-1 -8.74228e-08 -8.74228e-08 1 1201.55 130.819)" fill="#1828A6"/>
<circle r="1.58952" transform="matrix(-1 -8.74228e-08 -8.74228e-08 1 1201.55 293.008)" fill="#1828A6"/>
<circle r="1.58952" transform="matrix(-1 -8.74228e-08 -8.74228e-08 1 1446.26 130.819)" fill="#1828A6"/>
<circle r="1.58952" transform="matrix(-1 -8.74228e-08 -8.74228e-08 1 956.843 130.819)" fill="#1828A6"/>
<circle r="1.58952" transform="matrix(-1 -8.74228e-08 -8.74228e-08 1 1446.26 293.008)" fill="#1828A6"/>
<circle r="1.58952" transform="matrix(-1 -8.74228e-08 -8.74228e-08 1 956.843 293.008)" fill="#1828A6"/>
<circle r="1.58952" transform="matrix(-1 -8.74228e-08 -8.74228e-08 1 1201.55 157.841)" fill="#1828A6"/>
<circle r="1.58952" transform="matrix(-1 -8.74228e-08 -8.74228e-08 1 1201.55 320.03)" fill="#1828A6"/>
<circle r="1.58952" transform="matrix(-1 -8.74228e-08 -8.74228e-08 1 1446.26 157.841)" fill="#1828A6"/>
<circle r="1.58952" transform="matrix(-1 -8.74228e-08 -8.74228e-08 1 956.843 157.841)" fill="#1828A6"/>
<circle r="1.58952" transform="matrix(-1 -8.74228e-08 -8.74228e-08 1 1446.26 320.03)" fill="#1828A6"/>
<circle r="1.58952" transform="matrix(-1 -8.74228e-08 -8.74228e-08 1 956.843 320.03)" fill="#1828A6"/>
<circle r="1.58952" transform="matrix(-1 -8.74228e-08 -8.74228e-08 1 1201.55 184.862)" fill="#1828A6"/>
<circle r="1.58952" transform="matrix(-1 -8.74228e-08 -8.74228e-08 1 1201.55 347.052)" fill="#1828A6"/>
<circle r="1.58952" transform="matrix(-1 -8.74228e-08 -8.74228e-08 1 1446.26 184.862)" fill="#1828A6"/>
<circle r="1.58952" transform="matrix(-1 -8.74228e-08 -8.74228e-08 1 956.843 184.862)" fill="#1828A6"/>
<circle r="1.58952" transform="matrix(-1 -8.74228e-08 -8.74228e-08 1 1446.26 347.052)" fill="#1828A6"/>
<circle r="1.58952" transform="matrix(-1 -8.74228e-08 -8.74228e-08 1 956.843 347.052)" fill="#1828A6"/>
<circle r="1.58952" transform="matrix(-1 -8.74228e-08 -8.74228e-08 1 1166.58 49.7536)" fill="#1828A6"/>
<circle r="1.58952" transform="matrix(-1 -8.74228e-08 -8.74228e-08 1 1166.58 211.943)" fill="#1828A6"/>
<circle r="1.58952" transform="matrix(-1 -8.74228e-08 -8.74228e-08 1 1411.29 49.7536)" fill="#1828A6"/>
<circle r="1.58952" transform="matrix(-1 -8.74228e-08 -8.74228e-08 1 921.873 49.7536)" fill="#1828A6"/>
<circle r="1.58952" transform="matrix(-1 -8.74228e-08 -8.74228e-08 1 1411.29 211.943)" fill="#1828A6"/>
<circle r="1.58952" transform="matrix(-1 -8.74228e-08 -8.74228e-08 1 921.873 211.943)" fill="#1828A6"/>
<circle r="1.58952" transform="matrix(-1 -8.74228e-08 -8.74228e-08 1 1166.58 103.797)" fill="#1828A6"/>
<circle r="1.58952" transform="matrix(-1 -8.74228e-08 -8.74228e-08 1 1166.58 265.987)" fill="#1828A6"/>
<circle r="1.58952" transform="matrix(-1 -8.74228e-08 -8.74228e-08 1 1411.29 103.797)" fill="#1828A6"/>
<circle r="1.58952" transform="matrix(-1 -8.74228e-08 -8.74228e-08 1 921.873 103.797)" fill="#1828A6"/>
<circle r="1.58952" transform="matrix(-1 -8.74228e-08 -8.74228e-08 1 1411.29 265.987)" fill="#1828A6"/>
<circle r="1.58952" transform="matrix(-1 -8.74228e-08 -8.74228e-08 1 921.873 265.987)" fill="#1828A6"/>
<circle r="1.58952" transform="matrix(-1 -8.74228e-08 -8.74228e-08 1 1166.58 76.7753)" fill="#1828A6"/>
<circle r="1.58952" transform="matrix(-1 -8.74228e-08 -8.74228e-08 1 1166.58 238.965)" fill="#1828A6"/>
<circle r="1.58952" transform="matrix(-1 -8.74228e-08 -8.74228e-08 1 1411.29 76.7756)" fill="#1828A6"/>
<circle r="1.58952" transform="matrix(-1 -8.74228e-08 -8.74228e-08 1 921.873 76.7753)" fill="#1828A6"/>
<circle r="1.58952" transform="matrix(-1 -8.74228e-08 -8.74228e-08 1 1411.29 238.965)" fill="#1828A6"/>
<circle r="1.58952" transform="matrix(-1 -8.74228e-08 -8.74228e-08 1 921.873 238.965)" fill="#1828A6"/>
<circle r="1.58952" transform="matrix(-1 -8.74228e-08 -8.74228e-08 1 1166.58 130.819)" fill="#1828A6"/>
<circle r="1.58952" transform="matrix(-1 -8.74228e-08 -8.74228e-08 1 1166.58 293.008)" fill="#1828A6"/>
<circle r="1.58952" transform="matrix(-1 -8.74228e-08 -8.74228e-08 1 1411.29 130.819)" fill="#1828A6"/>
<circle r="1.58952" transform="matrix(-1 -8.74228e-08 -8.74228e-08 1 921.873 130.819)" fill="#1828A6"/>
<circle r="1.58952" transform="matrix(-1 -8.74228e-08 -8.74228e-08 1 1411.29 293.008)" fill="#1828A6"/>
<circle r="1.58952" transform="matrix(-1 -8.74228e-08 -8.74228e-08 1 921.873 293.008)" fill="#1828A6"/>
<circle r="1.58952" transform="matrix(-1 -8.74228e-08 -8.74228e-08 1 1166.58 157.841)" fill="#1828A6"/>
<circle r="1.58952" transform="matrix(-1 -8.74228e-08 -8.74228e-08 1 1166.58 320.03)" fill="#1828A6"/>
<circle r="1.58952" transform="matrix(-1 -8.74228e-08 -8.74228e-08 1 1411.29 157.841)" fill="#1828A6"/>
<circle r="1.58952" transform="matrix(-1 -8.74228e-08 -8.74228e-08 1 921.873 157.841)" fill="#1828A6"/>
<circle r="1.58952" transform="matrix(-1 -8.74228e-08 -8.74228e-08 1 1411.29 320.03)" fill="#1828A6"/>
<circle r="1.58952" transform="matrix(-1 -8.74228e-08 -8.74228e-08 1 921.873 320.03)" fill="#1828A6"/>
<circle r="1.58952" transform="matrix(-1 -8.74228e-08 -8.74228e-08 1 1166.58 184.862)" fill="#1828A6"/>
<circle r="1.58952" transform="matrix(-1 -8.74228e-08 -8.74228e-08 1 1166.58 347.052)" fill="#1828A6"/>
<circle r="1.58952" transform="matrix(-1 -8.74228e-08 -8.74228e-08 1 1411.29 184.862)" fill="#1828A6"/>
<circle r="1.58952" transform="matrix(-1 -8.74228e-08 -8.74228e-08 1 921.873 184.862)" fill="#1828A6"/>
<circle r="1.58952" transform="matrix(-1 -8.74228e-08 -8.74228e-08 1 1411.29 347.052)" fill="#1828A6"/>
<circle r="1.58952" transform="matrix(-1 -8.74228e-08 -8.74228e-08 1 921.873 347.052)" fill="#1828A6"/>
<circle r="1.58952" transform="matrix(-1 -8.74228e-08 -8.74228e-08 1 1131.61 49.7536)" fill="#1828A6"/>
<circle r="1.58952" transform="matrix(-1 -8.74228e-08 -8.74228e-08 1 1131.61 211.943)" fill="#1828A6"/>
<circle r="1.58952" transform="matrix(-1 -8.74228e-08 -8.74228e-08 1 1376.32 49.7536)" fill="#1828A6"/>
<circle r="1.58952" transform="matrix(-1 -8.74228e-08 -8.74228e-08 1 886.904 49.7536)" fill="#1828A6"/>
<circle r="1.58952" transform="matrix(-1 -8.74228e-08 -8.74228e-08 1 1376.32 211.943)" fill="#1828A6"/>
<circle r="1.58952" transform="matrix(-1 -8.74228e-08 -8.74228e-08 1 886.904 211.943)" fill="#1828A6"/>
<circle r="1.58952" transform="matrix(-1 -8.74228e-08 -8.74228e-08 1 1131.61 103.797)" fill="#1828A6"/>
<circle r="1.58952" transform="matrix(-1 -8.74228e-08 -8.74228e-08 1 1131.61 265.987)" fill="#1828A6"/>
<circle r="1.58952" transform="matrix(-1 -8.74228e-08 -8.74228e-08 1 1376.32 103.797)" fill="#1828A6"/>
<circle r="1.58952" transform="matrix(-1 -8.74228e-08 -8.74228e-08 1 886.904 103.797)" fill="#1828A6"/>
<circle r="1.58952" transform="matrix(-1 -8.74228e-08 -8.74228e-08 1 1376.32 265.987)" fill="#1828A6"/>
<circle r="1.58952" transform="matrix(-1 -8.74228e-08 -8.74228e-08 1 886.904 265.987)" fill="#1828A6"/>
<circle r="1.58952" transform="matrix(-1 -8.74228e-08 -8.74228e-08 1 1131.61 76.7756)" fill="#1828A6"/>
<circle r="1.58952" transform="matrix(-1 -8.74228e-08 -8.74228e-08 1 1131.61 238.965)" fill="#1828A6"/>
<circle r="1.58952" transform="matrix(-1 -8.74228e-08 -8.74228e-08 1 1376.32 76.7753)" fill="#1828A6"/>
<circle r="1.58952" transform="matrix(-1 -8.74228e-08 -8.74228e-08 1 886.904 76.7753)" fill="#1828A6"/>
<circle r="1.58952" transform="matrix(-1 -8.74228e-08 -8.74228e-08 1 1376.32 238.965)" fill="#1828A6"/>
<circle r="1.58952" transform="matrix(-1 -8.74228e-08 -8.74228e-08 1 886.904 238.965)" fill="#1828A6"/>
<circle r="1.58952" transform="matrix(-1 -8.74228e-08 -8.74228e-08 1 1131.61 130.819)" fill="#1828A6"/>
<circle r="1.58952" transform="matrix(-1 -8.74228e-08 -8.74228e-08 1 1131.61 293.008)" fill="#1828A6"/>
<circle r="1.58952" transform="matrix(-1 -8.74228e-08 -8.74228e-08 1 1376.32 130.819)" fill="#1828A6"/>
<circle r="1.58952" transform="matrix(-1 -8.74228e-08 -8.74228e-08 1 886.904 130.819)" fill="#1828A6"/>
<circle r="1.58952" transform="matrix(-1 -8.74228e-08 -8.74228e-08 1 1376.32 293.008)" fill="#1828A6"/>
<circle r="1.58952" transform="matrix(-1 -8.74228e-08 -8.74228e-08 1 886.904 293.008)" fill="#1828A6"/>
<circle r="1.58952" transform="matrix(-1 -8.74228e-08 -8.74228e-08 1 1131.61 157.841)" fill="#1828A6"/>
<circle r="1.58952" transform="matrix(-1 -8.74228e-08 -8.74228e-08 1 1131.61 320.03)" fill="#1828A6"/>
<circle r="1.58952" transform="matrix(-1 -8.74228e-08 -8.74228e-08 1 1376.32 157.841)" fill="#1828A6"/>
<circle r="1.58952" transform="matrix(-1 -8.74228e-08 -8.74228e-08 1 886.904 157.841)" fill="#1828A6"/>
<circle r="1.58952" transform="matrix(-1 -8.74228e-08 -8.74228e-08 1 1376.32 320.03)" fill="#1828A6"/>
<circle r="1.58952" transform="matrix(-1 -8.74228e-08 -8.74228e-08 1 886.904 320.03)" fill="#1828A6"/>
<circle r="1.58952" transform="matrix(-1 -8.74228e-08 -8.74228e-08 1 1131.61 184.862)" fill="#1828A6"/>
<circle r="1.58952" transform="matrix(-1 -8.74228e-08 -8.74228e-08 1 1131.61 347.052)" fill="#1828A6"/>
<circle r="1.58952" transform="matrix(-1 -8.74228e-08 -8.74228e-08 1 1376.32 184.862)" fill="#1828A6"/>
<circle r="1.58952" transform="matrix(-1 -8.74228e-08 -8.74228e-08 1 886.904 184.862)" fill="#1828A6"/>
<circle r="1.58952" transform="matrix(-1 -8.74228e-08 -8.74228e-08 1 1376.32 347.052)" fill="#1828A6"/>
<circle r="1.58952" transform="matrix(-1 -8.74228e-08 -8.74228e-08 1 886.904 347.052)" fill="#1828A6"/>
<circle r="1.58952" transform="matrix(-1 -8.74228e-08 -8.74228e-08 1 784.589 49.7536)" fill="#1828A6"/>
<circle r="1.58952" transform="matrix(-1 -8.74228e-08 -8.74228e-08 1 295.174 49.7536)" fill="#1828A6"/>
<circle r="1.58952" transform="matrix(-1 -8.74228e-08 -8.74228e-08 1 784.589 211.943)" fill="#1828A6"/>
<circle r="1.58952" transform="matrix(-1 -8.74228e-08 -8.74228e-08 1 295.174 211.943)" fill="#1828A6"/>
<circle r="1.58952" transform="matrix(-1 -8.74228e-08 -8.74228e-08 1 539.881 49.7536)" fill="#1828A6"/>
<circle r="1.58952" transform="matrix(-1 -8.74228e-08 -8.74228e-08 1 50.4671 49.7536)" fill="#1828A6"/>
<circle r="1.58952" transform="matrix(-1 -8.74228e-08 -8.74228e-08 1 539.881 211.943)" fill="#1828A6"/>
<circle r="1.58952" transform="matrix(-1 -8.74228e-08 -8.74228e-08 1 50.4671 211.943)" fill="#1828A6"/>
<circle r="1.58952" transform="matrix(-1 -8.74228e-08 -8.74228e-08 1 819.558 49.7536)" fill="#1828A6"/>
<circle r="1.58952" transform="matrix(-1 -8.74228e-08 -8.74228e-08 1 330.144 49.7536)" fill="#1828A6"/>
<circle r="1.58952" transform="matrix(-1 -8.74228e-08 -8.74228e-08 1 819.558 211.943)" fill="#1828A6"/>
<circle r="1.58952" transform="matrix(-1 -8.74228e-08 -8.74228e-08 1 330.144 211.943)" fill="#1828A6"/>
<circle r="1.58952" transform="matrix(-1 -8.74228e-08 -8.74228e-08 1 574.851 49.7536)" fill="#1828A6"/>
<circle r="1.58952" transform="matrix(-1 -8.74228e-08 -8.74228e-08 1 85.4364 49.7536)" fill="#1828A6"/>
<circle r="1.58952" transform="matrix(-1 -8.74228e-08 -8.74228e-08 1 574.851 211.943)" fill="#1828A6"/>
<circle r="1.58952" transform="matrix(-1 -8.74228e-08 -8.74228e-08 1 85.4364 211.943)" fill="#1828A6"/>
<circle r="1.58952" transform="matrix(-1 -8.74228e-08 -8.74228e-08 1 854.528 49.7536)" fill="#1828A6"/>
<circle r="1.58952" transform="matrix(-1 -8.74228e-08 -8.74228e-08 1 365.113 49.7536)" fill="#1828A6"/>
<circle r="1.58952" transform="matrix(-1 -8.74228e-08 -8.74228e-08 1 854.528 211.943)" fill="#1828A6"/>
<circle r="1.58952" transform="matrix(-1 -8.74228e-08 -8.74228e-08 1 365.113 211.943)" fill="#1828A6"/>
<circle r="1.58952" transform="matrix(-1 -8.74228e-08 -8.74228e-08 1 609.821 49.7536)" fill="#1828A6"/>
<circle r="1.58952" transform="matrix(-1 -8.74228e-08 -8.74228e-08 1 120.406 49.7536)" fill="#1828A6"/>
<circle r="1.58952" transform="matrix(-1 -8.74228e-08 -8.74228e-08 1 609.821 211.943)" fill="#1828A6"/>
<circle r="1.58952" transform="matrix(-1 -8.74228e-08 -8.74228e-08 1 120.406 211.943)" fill="#1828A6"/>
<circle r="1.58952" transform="matrix(-1 -8.74228e-08 -8.74228e-08 1 784.589 103.797)" fill="#1828A6"/>
<circle r="1.58952" transform="matrix(-1 -8.74228e-08 -8.74228e-08 1 295.174 103.797)" fill="#1828A6"/>
<circle r="1.58952" transform="matrix(-1 -8.74228e-08 -8.74228e-08 1 784.589 265.987)" fill="#1828A6"/>
<circle r="1.58952" transform="matrix(-1 -8.74228e-08 -8.74228e-08 1 295.175 265.987)" fill="#1828A6"/>
<circle r="1.58952" transform="matrix(-1 -8.74228e-08 -8.74228e-08 1 539.881 103.797)" fill="#1828A6"/>
<circle r="1.58952" transform="matrix(-1 -8.74228e-08 -8.74228e-08 1 50.4671 103.797)" fill="#1828A6"/>
<circle r="1.58952" transform="matrix(-1 -8.74228e-08 -8.74228e-08 1 539.881 265.987)" fill="#1828A6"/>
<circle r="1.58952" transform="matrix(-1 -8.74228e-08 -8.74228e-08 1 50.4671 265.987)" fill="#1828A6"/>
<circle r="1.58952" transform="matrix(-1 -8.74228e-08 -8.74228e-08 1 819.558 103.797)" fill="#1828A6"/>
<circle r="1.58952" transform="matrix(-1 -8.74228e-08 -8.74228e-08 1 330.144 103.797)" fill="#1828A6"/>
<circle r="1.58952" transform="matrix(-1 -8.74228e-08 -8.74228e-08 1 819.558 265.987)" fill="#1828A6"/>
<circle r="1.58952" transform="matrix(-1 -8.74228e-08 -8.74228e-08 1 330.144 265.987)" fill="#1828A6"/>
<circle r="1.58952" transform="matrix(-1 -8.74228e-08 -8.74228e-08 1 574.851 103.797)" fill="#1828A6"/>
<circle r="1.58952" transform="matrix(-1 -8.74228e-08 -8.74228e-08 1 85.4364 103.797)" fill="#1828A6"/>
<circle r="1.58952" transform="matrix(-1 -8.74228e-08 -8.74228e-08 1 574.851 265.987)" fill="#1828A6"/>
<circle r="1.58952" transform="matrix(-1 -8.74228e-08 -8.74228e-08 1 85.4364 265.987)" fill="#1828A6"/>
<circle r="1.58952" transform="matrix(-1 -8.74228e-08 -8.74228e-08 1 854.528 103.797)" fill="#1828A6"/>
<circle r="1.58952" transform="matrix(-1 -8.74228e-08 -8.74228e-08 1 365.113 103.797)" fill="#1828A6"/>
<circle r="1.58952" transform="matrix(-1 -8.74228e-08 -8.74228e-08 1 854.528 265.987)" fill="#1828A6"/>
<circle r="1.58952" transform="matrix(-1 -8.74228e-08 -8.74228e-08 1 365.113 265.987)" fill="#1828A6"/>
<circle r="1.58952" transform="matrix(-1 -8.74228e-08 -8.74228e-08 1 609.821 103.797)" fill="#1828A6"/>
<circle r="1.58952" transform="matrix(-1 -8.74228e-08 -8.74228e-08 1 120.406 103.797)" fill="#1828A6"/>
<circle r="1.58952" transform="matrix(-1 -8.74228e-08 -8.74228e-08 1 609.821 265.987)" fill="#1828A6"/>
<circle r="1.58952" transform="matrix(-1 -8.74228e-08 -8.74228e-08 1 120.406 265.987)" fill="#1828A6"/>
<circle r="1.58952" transform="matrix(-1 -8.74228e-08 -8.74228e-08 1 784.589 76.7753)" fill="#1828A6"/>
<circle r="1.58952" transform="matrix(-1 -8.74228e-08 -8.74228e-08 1 295.174 76.7753)" fill="#1828A6"/>
<circle r="1.58952" transform="matrix(-1 -8.74228e-08 -8.74228e-08 1 784.589 238.965)" fill="#1828A6"/>
<circle r="1.58952" transform="matrix(-1 -8.74228e-08 -8.74228e-08 1 295.175 238.965)" fill="#1828A6"/>
<circle r="1.58952" transform="matrix(-1 -8.74228e-08 -8.74228e-08 1 539.881 76.7753)" fill="#1828A6"/>
<circle r="1.58952" transform="matrix(-1 -8.74228e-08 -8.74228e-08 1 50.4671 76.7751)" fill="#1828A6"/>
<circle r="1.58952" transform="matrix(-1 -8.74228e-08 -8.74228e-08 1 539.881 238.965)" fill="#1828A6"/>
<circle r="1.58952" transform="matrix(-1 -8.74228e-08 -8.74228e-08 1 50.4671 238.965)" fill="#1828A6"/>
<circle r="1.58952" transform="matrix(-1 -8.74228e-08 -8.74228e-08 1 819.558 76.7753)" fill="#1828A6"/>
<circle r="1.58952" transform="matrix(-1 -8.74228e-08 -8.74228e-08 1 330.144 76.7756)" fill="#1828A6"/>
<circle r="1.58952" transform="matrix(-1 -8.74228e-08 -8.74228e-08 1 819.558 238.965)" fill="#1828A6"/>
<circle r="1.58952" transform="matrix(-1 -8.74228e-08 -8.74228e-08 1 330.144 238.965)" fill="#1828A6"/>
<circle r="1.58952" transform="matrix(-1 -8.74228e-08 -8.74228e-08 1 574.851 76.7753)" fill="#1828A6"/>
<circle r="1.58952" transform="matrix(-1 -8.74228e-08 -8.74228e-08 1 85.4364 76.7756)" fill="#1828A6"/>
<circle r="1.58952" transform="matrix(-1 -8.74228e-08 -8.74228e-08 1 574.851 238.965)" fill="#1828A6"/>
<circle r="1.58952" transform="matrix(-1 -8.74228e-08 -8.74228e-08 1 85.4364 238.965)" fill="#1828A6"/>
<circle r="1.58952" transform="matrix(-1 -8.74228e-08 -8.74228e-08 1 854.528 76.7753)" fill="#1828A6"/>
<circle r="1.58952" transform="matrix(-1 -8.74228e-08 -8.74228e-08 1 365.113 76.7753)" fill="#1828A6"/>
<circle r="1.58952" transform="matrix(-1 -8.74228e-08 -8.74228e-08 1 854.528 238.965)" fill="#1828A6"/>
<circle r="1.58952" transform="matrix(-1 -8.74228e-08 -8.74228e-08 1 365.113 238.965)" fill="#1828A6"/>
<circle r="1.58952" transform="matrix(-1 -8.74228e-08 -8.74228e-08 1 609.821 76.7756)" fill="#1828A6"/>
<circle r="1.58952" transform="matrix(-1 -8.74228e-08 -8.74228e-08 1 120.406 76.7753)" fill="#1828A6"/>
<circle r="1.58952" transform="matrix(-1 -8.74228e-08 -8.74228e-08 1 609.821 238.965)" fill="#1828A6"/>
<circle r="1.58952" transform="matrix(-1 -8.74228e-08 -8.74228e-08 1 120.406 238.965)" fill="#1828A6"/>
<circle r="1.58952" transform="matrix(-1 -8.74228e-08 -8.74228e-08 1 784.589 130.819)" fill="#1828A6"/>
<circle r="1.58952" transform="matrix(-1 -8.74228e-08 -8.74228e-08 1 295.174 130.819)" fill="#1828A6"/>
<circle r="1.58952" transform="matrix(-1 -8.74228e-08 -8.74228e-08 1 784.589 293.008)" fill="#1828A6"/>
<circle r="1.58952" transform="matrix(-1 -8.74228e-08 -8.74228e-08 1 295.175 293.008)" fill="#1828A6"/>
<circle r="1.58952" transform="matrix(-1 -8.74228e-08 -8.74228e-08 1 539.881 130.819)" fill="#1828A6"/>
<circle r="1.58952" transform="matrix(-1 -8.74228e-08 -8.74228e-08 1 50.4671 130.819)" fill="#1828A6"/>
<circle r="1.58952" transform="matrix(-1 -8.74228e-08 -8.74228e-08 1 539.881 293.008)" fill="#1828A6"/>
<circle r="1.58952" transform="matrix(-1 -8.74228e-08 -8.74228e-08 1 50.4671 293.008)" fill="#1828A6"/>
<circle r="1.58952" transform="matrix(-1 -8.74228e-08 -8.74228e-08 1 819.558 130.819)" fill="#1828A6"/>
<circle r="1.58952" transform="matrix(-1 -8.74228e-08 -8.74228e-08 1 330.144 130.819)" fill="#1828A6"/>
<circle r="1.58952" transform="matrix(-1 -8.74228e-08 -8.74228e-08 1 819.558 293.008)" fill="#1828A6"/>
<circle r="1.58952" transform="matrix(-1 -8.74228e-08 -8.74228e-08 1 330.144 293.008)" fill="#1828A6"/>
<circle r="1.58952" transform="matrix(-1 -8.74228e-08 -8.74228e-08 1 574.851 130.819)" fill="#1828A6"/>
<circle r="1.58952" transform="matrix(-1 -8.74228e-08 -8.74228e-08 1 85.4364 130.819)" fill="#1828A6"/>
<circle r="1.58952" transform="matrix(-1 -8.74228e-08 -8.74228e-08 1 574.851 293.008)" fill="#1828A6"/>
<circle r="1.58952" transform="matrix(-1 -8.74228e-08 -8.74228e-08 1 85.4364 293.008)" fill="#1828A6"/>
<circle r="1.58952" transform="matrix(-1 -8.74228e-08 -8.74228e-08 1 854.528 130.819)" fill="#1828A6"/>
<circle r="1.58952" transform="matrix(-1 -8.74228e-08 -8.74228e-08 1 365.113 130.819)" fill="#1828A6"/>
<circle r="1.58952" transform="matrix(-1 -8.74228e-08 -8.74228e-08 1 854.528 293.008)" fill="#1828A6"/>
<circle r="1.58952" transform="matrix(-1 -8.74228e-08 -8.74228e-08 1 365.113 293.008)" fill="#1828A6"/>
<circle r="1.58952" transform="matrix(-1 -8.74228e-08 -8.74228e-08 1 609.821 130.819)" fill="#1828A6"/>
<circle r="1.58952" transform="matrix(-1 -8.74228e-08 -8.74228e-08 1 120.406 130.819)" fill="#1828A6"/>
<circle r="1.58952" transform="matrix(-1 -8.74228e-08 -8.74228e-08 1 609.821 293.008)" fill="#1828A6"/>
<circle r="1.58952" transform="matrix(-1 -8.74228e-08 -8.74228e-08 1 120.406 293.008)" fill="#1828A6"/>
<circle r="1.58952" transform="matrix(-1 -8.74228e-08 -8.74228e-08 1 784.589 157.84)" fill="#1828A6"/>
<circle r="1.58952" transform="matrix(-1 -8.74228e-08 -8.74228e-08 1 295.174 157.84)" fill="#1828A6"/>
<circle r="1.58952" transform="matrix(-1 -8.74228e-08 -8.74228e-08 1 784.589 320.03)" fill="#1828A6"/>
<circle r="1.58952" transform="matrix(-1 -8.74228e-08 -8.74228e-08 1 295.175 320.03)" fill="#1828A6"/>
<circle r="1.58952" transform="matrix(-1 -8.74228e-08 -8.74228e-08 1 539.881 157.84)" fill="#1828A6"/>
<circle r="1.58952" transform="matrix(-1 -8.74228e-08 -8.74228e-08 1 50.4671 157.84)" fill="#1828A6"/>
<circle r="1.58952" transform="matrix(-1 -8.74228e-08 -8.74228e-08 1 539.881 320.03)" fill="#1828A6"/>
<circle r="1.58952" transform="matrix(-1 -8.74228e-08 -8.74228e-08 1 50.4671 320.03)" fill="#1828A6"/>
<circle r="1.58952" transform="matrix(-1 -8.74228e-08 -8.74228e-08 1 819.558 157.841)" fill="#1828A6"/>
<circle r="1.58952" transform="matrix(-1 -8.74228e-08 -8.74228e-08 1 330.144 157.84)" fill="#1828A6"/>
<circle r="1.58952" transform="matrix(-1 -8.74228e-08 -8.74228e-08 1 819.558 320.03)" fill="#1828A6"/>
<circle r="1.58952" transform="matrix(-1 -8.74228e-08 -8.74228e-08 1 330.144 320.03)" fill="#1828A6"/>
<circle r="1.58952" transform="matrix(-1 -8.74228e-08 -8.74228e-08 1 574.851 157.84)" fill="#1828A6"/>
<circle r="1.58952" transform="matrix(-1 -8.74228e-08 -8.74228e-08 1 85.4364 157.84)" fill="#1828A6"/>
<circle r="1.58952" transform="matrix(-1 -8.74228e-08 -8.74228e-08 1 574.851 320.03)" fill="#1828A6"/>
<circle r="1.58952" transform="matrix(-1 -8.74228e-08 -8.74228e-08 1 85.4364 320.03)" fill="#1828A6"/>
<circle r="1.58952" transform="matrix(-1 -8.74228e-08 -8.74228e-08 1 854.528 157.841)" fill="#1828A6"/>
<circle r="1.58952" transform="matrix(-1 -8.74228e-08 -8.74228e-08 1 365.113 157.84)" fill="#1828A6"/>
<circle r="1.58952" transform="matrix(-1 -8.74228e-08 -8.74228e-08 1 854.528 320.03)" fill="#1828A6"/>
<circle r="1.58952" transform="matrix(-1 -8.74228e-08 -8.74228e-08 1 365.113 320.03)" fill="#1828A6"/>
<circle r="1.58952" transform="matrix(-1 -8.74228e-08 -8.74228e-08 1 609.821 157.84)" fill="#1828A6"/>
<circle r="1.58952" transform="matrix(-1 -8.74228e-08 -8.74228e-08 1 120.406 157.84)" fill="#1828A6"/>
<circle r="1.58952" transform="matrix(-1 -8.74228e-08 -8.74228e-08 1 609.821 320.03)" fill="#1828A6"/>
<circle r="1.58952" transform="matrix(-1 -8.74228e-08 -8.74228e-08 1 120.406 320.03)" fill="#1828A6"/>
<circle r="1.58952" transform="matrix(-1 -8.74228e-08 -8.74228e-08 1 784.589 184.862)" fill="#1828A6"/>
<circle r="1.58952" transform="matrix(-1 -8.74228e-08 -8.74228e-08 1 295.174 184.862)" fill="#1828A6"/>
<circle r="1.58952" transform="matrix(-1 -8.74228e-08 -8.74228e-08 1 784.589 347.052)" fill="#1828A6"/>
<circle r="1.58952" transform="matrix(-1 -8.74228e-08 -8.74228e-08 1 295.175 347.052)" fill="#1828A6"/>
<circle r="1.58952" transform="matrix(-1 -8.74228e-08 -8.74228e-08 1 539.881 184.862)" fill="#1828A6"/>
<circle r="1.58952" transform="matrix(-1 -8.74228e-08 -8.74228e-08 1 50.4671 184.862)" fill="#1828A6"/>
<circle r="1.58952" transform="matrix(-1 -8.74228e-08 -8.74228e-08 1 539.882 347.052)" fill="#1828A6"/>
<circle r="1.58952" transform="matrix(-1 -8.74228e-08 -8.74228e-08 1 50.4671 347.052)" fill="#1828A6"/>
<circle r="1.58952" transform="matrix(-1 -8.74228e-08 -8.74228e-08 1 819.558 184.862)" fill="#1828A6"/>
<circle r="1.58952" transform="matrix(-1 -8.74228e-08 -8.74228e-08 1 330.144 184.862)" fill="#1828A6"/>
<circle r="1.58952" transform="matrix(-1 -8.74228e-08 -8.74228e-08 1 819.558 347.052)" fill="#1828A6"/>
<circle r="1.58952" transform="matrix(-1 -8.74228e-08 -8.74228e-08 1 330.144 347.052)" fill="#1828A6"/>
<circle r="1.58952" transform="matrix(-1 -8.74228e-08 -8.74228e-08 1 574.851 184.862)" fill="#1828A6"/>
<circle r="1.58952" transform="matrix(-1 -8.74228e-08 -8.74228e-08 1 85.4364 184.862)" fill="#1828A6"/>
<circle r="1.58952" transform="matrix(-1 -8.74228e-08 -8.74228e-08 1 574.851 347.052)" fill="#1828A6"/>
<circle r="1.58952" transform="matrix(-1 -8.74228e-08 -8.74228e-08 1 85.4364 347.052)" fill="#1828A6"/>
<circle r="1.58952" transform="matrix(-1 -8.74228e-08 -8.74228e-08 1 854.528 184.862)" fill="#1828A6"/>
<circle r="1.58952" transform="matrix(-1 -8.74228e-08 -8.74228e-08 1 365.113 184.862)" fill="#1828A6"/>
<circle r="1.58952" transform="matrix(-1 -8.74228e-08 -8.74228e-08 1 854.528 347.052)" fill="#1828A6"/>
<circle r="1.58952" transform="matrix(-1 -8.74228e-08 -8.74228e-08 1 365.113 347.052)" fill="#1828A6"/>
<circle r="1.58952" transform="matrix(-1 -8.74228e-08 -8.74228e-08 1 609.821 184.862)" fill="#1828A6"/>
<circle r="1.58952" transform="matrix(-1 -8.74228e-08 -8.74228e-08 1 120.406 184.862)" fill="#1828A6"/>
<circle r="1.58952" transform="matrix(-1 -8.74228e-08 -8.74228e-08 1 609.821 347.052)" fill="#1828A6"/>
<circle r="1.58952" transform="matrix(-1 -8.74228e-08 -8.74228e-08 1 120.406 347.052)" fill="#1828A6"/>
<circle r="1.58952" transform="matrix(-1 -8.74228e-08 -8.74228e-08 1 749.619 49.7536)" fill="#1828A6"/>
<circle r="1.58952" transform="matrix(-1 -8.74228e-08 -8.74228e-08 1 260.205 49.7536)" fill="#1828A6"/>
<circle r="1.58952" transform="matrix(-1 -8.74228e-08 -8.74228e-08 1 749.619 211.943)" fill="#1828A6"/>
<circle r="1.58952" transform="matrix(-1 -8.74228e-08 -8.74228e-08 1 260.205 211.943)" fill="#1828A6"/>
<circle r="1.58952" transform="matrix(-1 -8.74228e-08 -8.74228e-08 1 504.912 49.7536)" fill="#1828A6"/>
<circle r="1.58952" transform="matrix(-1 -8.74228e-08 -8.74228e-08 1 15.4974 49.7536)" fill="#1828A6"/>
<circle r="1.58952" transform="matrix(-1 -8.74228e-08 -8.74228e-08 1 504.912 211.943)" fill="#1828A6"/>
<circle r="1.58952" transform="matrix(-1 -8.74228e-08 -8.74228e-08 1 15.4974 211.943)" fill="#1828A6"/>
<circle r="1.58952" transform="matrix(-1 -8.74228e-08 -8.74228e-08 1 749.619 103.797)" fill="#1828A6"/>
<circle r="1.58952" transform="matrix(-1 -8.74228e-08 -8.74228e-08 1 260.205 103.797)" fill="#1828A6"/>
<circle r="1.58952" transform="matrix(-1 -8.74228e-08 -8.74228e-08 1 749.619 265.987)" fill="#1828A6"/>
<circle r="1.58952" transform="matrix(-1 -8.74228e-08 -8.74228e-08 1 260.205 265.987)" fill="#1828A6"/>
<circle r="1.58952" transform="matrix(-1 -8.74228e-08 -8.74228e-08 1 504.912 103.797)" fill="#1828A6"/>
<circle r="1.58952" transform="matrix(-1 -8.74228e-08 -8.74228e-08 1 15.4974 103.797)" fill="#1828A6"/>
<circle r="1.58952" transform="matrix(-1 -8.74228e-08 -8.74228e-08 1 504.912 265.987)" fill="#1828A6"/>
<circle r="1.58952" transform="matrix(-1 -8.74228e-08 -8.74228e-08 1 15.4974 265.987)" fill="#1828A6"/>
<circle r="1.58952" transform="matrix(-1 -8.74228e-08 -8.74228e-08 1 749.619 76.7756)" fill="#1828A6"/>
<circle r="1.58952" transform="matrix(-1 -8.74228e-08 -8.74228e-08 1 260.205 76.7753)" fill="#1828A6"/>
<circle r="1.58952" transform="matrix(-1 -8.74228e-08 -8.74228e-08 1 749.619 238.965)" fill="#1828A6"/>
<circle r="1.58952" transform="matrix(-1 -8.74228e-08 -8.74228e-08 1 260.205 238.965)" fill="#1828A6"/>
<circle r="1.58952" transform="matrix(-1 -8.74228e-08 -8.74228e-08 1 504.912 76.7753)" fill="#1828A6"/>
<circle r="1.58952" transform="matrix(-1 -8.74228e-08 -8.74228e-08 1 15.4974 76.7751)" fill="#1828A6"/>
<circle r="1.58952" transform="matrix(-1 -8.74228e-08 -8.74228e-08 1 504.912 238.965)" fill="#1828A6"/>
<circle r="1.58952" transform="matrix(-1 -8.74228e-08 -8.74228e-08 1 15.4974 238.965)" fill="#1828A6"/>
<circle r="1.58952" transform="matrix(-1 -8.74228e-08 -8.74228e-08 1 749.619 130.819)" fill="#1828A6"/>
<circle r="1.58952" transform="matrix(-1 -8.74228e-08 -8.74228e-08 1 260.205 130.819)" fill="#1828A6"/>
<circle r="1.58952" transform="matrix(-1 -8.74228e-08 -8.74228e-08 1 749.619 293.008)" fill="#1828A6"/>
<circle r="1.58952" transform="matrix(-1 -8.74228e-08 -8.74228e-08 1 260.205 293.008)" fill="#1828A6"/>
<circle r="1.58952" transform="matrix(-1 -8.74228e-08 -8.74228e-08 1 504.912 130.819)" fill="#1828A6"/>
<circle r="1.58952" transform="matrix(-1 -8.74228e-08 -8.74228e-08 1 15.4974 130.819)" fill="#1828A6"/>
<circle r="1.58952" transform="matrix(-1 -8.74228e-08 -8.74228e-08 1 504.912 293.008)" fill="#1828A6"/>
<circle r="1.58952" transform="matrix(-1 -8.74228e-08 -8.74228e-08 1 15.4974 293.008)" fill="#1828A6"/>
<circle r="1.58952" transform="matrix(-1 -8.74228e-08 -8.74228e-08 1 749.619 157.84)" fill="#1828A6"/>
<circle r="1.58952" transform="matrix(-1 -8.74228e-08 -8.74228e-08 1 260.205 157.84)" fill="#1828A6"/>
<circle r="1.58952" transform="matrix(-1 -8.74228e-08 -8.74228e-08 1 749.619 320.03)" fill="#1828A6"/>
<circle r="1.58952" transform="matrix(-1 -8.74228e-08 -8.74228e-08 1 260.205 320.03)" fill="#1828A6"/>
<circle r="1.58952" transform="matrix(-1 -8.74228e-08 -8.74228e-08 1 504.912 157.84)" fill="#1828A6"/>
<circle r="1.58952" transform="matrix(-1 -8.74228e-08 -8.74228e-08 1 15.4974 157.84)" fill="#1828A6"/>
<circle r="1.58952" transform="matrix(-1 -8.74228e-08 -8.74228e-08 1 504.912 320.03)" fill="#1828A6"/>
<circle r="1.58952" transform="matrix(-1 -8.74228e-08 -8.74228e-08 1 15.4974 320.03)" fill="#1828A6"/>
<circle r="1.58952" transform="matrix(-1 -8.74228e-08 -8.74228e-08 1 749.619 184.862)" fill="#1828A6"/>
<circle r="1.58952" transform="matrix(-1 -8.74228e-08 -8.74228e-08 1 260.205 184.862)" fill="#1828A6"/>
<circle r="1.58952" transform="matrix(-1 -8.74228e-08 -8.74228e-08 1 749.619 347.052)" fill="#1828A6"/>
<circle r="1.58952" transform="matrix(-1 -8.74228e-08 -8.74228e-08 1 260.205 347.052)" fill="#1828A6"/>
<circle r="1.58952" transform="matrix(-1 -8.74228e-08 -8.74228e-08 1 504.912 184.862)" fill="#1828A6"/>
<circle r="1.58952" transform="matrix(-1 -8.74228e-08 -8.74228e-08 1 15.4974 184.862)" fill="#1828A6"/>
<circle r="1.58952" transform="matrix(-1 -8.74228e-08 -8.74228e-08 1 504.912 347.052)" fill="#1828A6"/>
<circle r="1.58952" transform="matrix(-1 -8.74228e-08 -8.74228e-08 1 15.4974 347.052)" fill="#1828A6"/>
<circle r="1.58952" transform="matrix(-1 -8.74228e-08 -8.74228e-08 1 714.65 49.7536)" fill="#1828A6"/>
<circle r="1.58952" transform="matrix(-1 -8.74228e-08 -8.74228e-08 1 225.235 49.7536)" fill="#1828A6"/>
<circle r="1.58952" transform="matrix(-1 -8.74228e-08 -8.74228e-08 1 714.65 211.943)" fill="#1828A6"/>
<circle r="1.58952" transform="matrix(-1 -8.74228e-08 -8.74228e-08 1 225.235 211.943)" fill="#1828A6"/>
<circle r="1.58952" transform="matrix(-1 -8.74228e-08 -8.74228e-08 1 469.943 49.7536)" fill="#1828A6"/>
<circle r="1.58952" transform="matrix(-1 -8.74228e-08 -8.74228e-08 1 469.943 211.943)" fill="#1828A6"/>
<circle r="1.58952" transform="matrix(-1 -8.74228e-08 -8.74228e-08 1 714.65 103.797)" fill="#1828A6"/>
<circle r="1.58952" transform="matrix(-1 -8.74228e-08 -8.74228e-08 1 225.235 103.797)" fill="#1828A6"/>
<circle r="1.58952" transform="matrix(-1 -8.74228e-08 -8.74228e-08 1 714.65 265.987)" fill="#1828A6"/>
<circle r="1.58952" transform="matrix(-1 -8.74228e-08 -8.74228e-08 1 225.235 265.987)" fill="#1828A6"/>
<circle r="1.58952" transform="matrix(-1 -8.74228e-08 -8.74228e-08 1 469.943 103.797)" fill="#1828A6"/>
<circle r="1.58952" transform="matrix(-1 -8.74228e-08 -8.74228e-08 1 469.943 265.987)" fill="#1828A6"/>
<circle r="1.58952" transform="matrix(-1 -8.74228e-08 -8.74228e-08 1 714.65 76.7753)" fill="#1828A6"/>
<circle r="1.58952" transform="matrix(-1 -8.74228e-08 -8.74228e-08 1 225.235 76.7756)" fill="#1828A6"/>
<circle r="1.58952" transform="matrix(-1 -8.74228e-08 -8.74228e-08 1 714.65 238.965)" fill="#1828A6"/>
<circle r="1.58952" transform="matrix(-1 -8.74228e-08 -8.74228e-08 1 225.235 238.965)" fill="#1828A6"/>
<circle r="1.58952" transform="matrix(-1 -8.74228e-08 -8.74228e-08 1 469.943 76.7756)" fill="#1828A6"/>
<circle r="1.58952" transform="matrix(-1 -8.74228e-08 -8.74228e-08 1 469.943 238.965)" fill="#1828A6"/>
<circle r="1.58952" transform="matrix(-1 -8.74228e-08 -8.74228e-08 1 714.65 130.819)" fill="#1828A6"/>
<circle r="1.58952" transform="matrix(-1 -8.74228e-08 -8.74228e-08 1 225.235 130.819)" fill="#1828A6"/>
<circle r="1.58952" transform="matrix(-1 -8.74228e-08 -8.74228e-08 1 714.65 293.008)" fill="#1828A6"/>
<circle r="1.58952" transform="matrix(-1 -8.74228e-08 -8.74228e-08 1 225.235 293.008)" fill="#1828A6"/>
<circle r="1.58952" transform="matrix(-1 -8.74228e-08 -8.74228e-08 1 469.943 130.819)" fill="#1828A6"/>
<circle r="1.58952" transform="matrix(-1 -8.74228e-08 -8.74228e-08 1 469.943 293.008)" fill="#1828A6"/>
<circle r="1.58952" transform="matrix(-1 -8.74228e-08 -8.74228e-08 1 714.65 157.84)" fill="#1828A6"/>
<circle r="1.58952" transform="matrix(-1 -8.74228e-08 -8.74228e-08 1 225.235 157.84)" fill="#1828A6"/>
<circle r="1.58952" transform="matrix(-1 -8.74228e-08 -8.74228e-08 1 714.65 320.03)" fill="#1828A6"/>
<circle r="1.58952" transform="matrix(-1 -8.74228e-08 -8.74228e-08 1 225.235 320.03)" fill="#1828A6"/>
<circle r="1.58952" transform="matrix(-1 -8.74228e-08 -8.74228e-08 1 469.943 157.84)" fill="#1828A6"/>
<circle r="1.58952" transform="matrix(-1 -8.74228e-08 -8.74228e-08 1 469.943 320.03)" fill="#1828A6"/>
<circle r="1.58952" transform="matrix(-1 -8.74228e-08 -8.74228e-08 1 714.65 184.862)" fill="#1828A6"/>
<circle r="1.58952" transform="matrix(-1 -8.74228e-08 -8.74228e-08 1 225.235 184.862)" fill="#1828A6"/>
<circle r="1.58952" transform="matrix(-1 -8.74228e-08 -8.74228e-08 1 714.65 347.052)" fill="#1828A6"/>
<circle r="1.58952" transform="matrix(-1 -8.74228e-08 -8.74228e-08 1 225.235 347.052)" fill="#1828A6"/>
<circle r="1.58952" transform="matrix(-1 -8.74228e-08 -8.74228e-08 1 469.943 184.862)" fill="#1828A6"/>
<circle r="1.58952" transform="matrix(-1 -8.74228e-08 -8.74228e-08 1 469.943 347.052)" fill="#1828A6"/>
<circle r="1.58952" transform="matrix(-1 -8.74228e-08 -8.74228e-08 1 679.681 49.7536)" fill="#1828A6"/>
<circle r="1.58952" transform="matrix(-1 -8.74228e-08 -8.74228e-08 1 190.266 49.7536)" fill="#1828A6"/>
<circle r="1.58952" transform="matrix(-1 -8.74228e-08 -8.74228e-08 1 679.681 211.943)" fill="#1828A6"/>
<circle r="1.58952" transform="matrix(-1 -8.74228e-08 -8.74228e-08 1 190.266 211.943)" fill="#1828A6"/>
<circle r="1.58952" transform="matrix(-1 -8.74228e-08 -8.74228e-08 1 434.973 49.7536)" fill="#1828A6"/>
<circle r="1.58952" transform="matrix(-1 -8.74228e-08 -8.74228e-08 1 434.973 211.943)" fill="#1828A6"/>
<circle r="1.58952" transform="matrix(-1 -8.74228e-08 -8.74228e-08 1 679.681 103.797)" fill="#1828A6"/>
<circle r="1.58952" transform="matrix(-1 -8.74228e-08 -8.74228e-08 1 190.266 103.797)" fill="#1828A6"/>
<circle r="1.58952" transform="matrix(-1 -8.74228e-08 -8.74228e-08 1 679.681 265.987)" fill="#1828A6"/>
<circle r="1.58952" transform="matrix(-1 -8.74228e-08 -8.74228e-08 1 190.266 265.987)" fill="#1828A6"/>
<circle r="1.58952" transform="matrix(-1 -8.74228e-08 -8.74228e-08 1 434.973 103.797)" fill="#1828A6"/>
<circle r="1.58952" transform="matrix(-1 -8.74228e-08 -8.74228e-08 1 434.973 265.987)" fill="#1828A6"/>
<circle r="1.58952" transform="matrix(-1 -8.74228e-08 -8.74228e-08 1 679.681 76.7753)" fill="#1828A6"/>
<circle r="1.58952" transform="matrix(-1 -8.74228e-08 -8.74228e-08 1 190.266 76.7756)" fill="#1828A6"/>
<circle r="1.58952" transform="matrix(-1 -8.74228e-08 -8.74228e-08 1 679.681 238.965)" fill="#1828A6"/>
<circle r="1.58952" transform="matrix(-1 -8.74228e-08 -8.74228e-08 1 190.266 238.965)" fill="#1828A6"/>
<circle r="1.58952" transform="matrix(-1 -8.74228e-08 -8.74228e-08 1 434.973 76.7753)" fill="#1828A6"/>
<circle r="1.58952" transform="matrix(-1 -8.74228e-08 -8.74228e-08 1 434.973 238.965)" fill="#1828A6"/>
<circle r="1.58952" transform="matrix(-1 -8.74228e-08 -8.74228e-08 1 679.681 130.819)" fill="#1828A6"/>
<circle r="1.58952" transform="matrix(-1 -8.74228e-08 -8.74228e-08 1 190.266 130.819)" fill="#1828A6"/>
<circle r="1.58952" transform="matrix(-1 -8.74228e-08 -8.74228e-08 1 679.681 293.008)" fill="#1828A6"/>
<circle r="1.58952" transform="matrix(-1 -8.74228e-08 -8.74228e-08 1 190.266 293.008)" fill="#1828A6"/>
<circle r="1.58952" transform="matrix(-1 -8.74228e-08 -8.74228e-08 1 434.973 130.819)" fill="#1828A6"/>
<circle r="1.58952" transform="matrix(-1 -8.74228e-08 -8.74228e-08 1 434.973 293.008)" fill="#1828A6"/>
<circle r="1.58952" transform="matrix(-1 -8.74228e-08 -8.74228e-08 1 679.681 157.84)" fill="#1828A6"/>
<circle r="1.58952" transform="matrix(-1 -8.74228e-08 -8.74228e-08 1 190.266 157.84)" fill="#1828A6"/>
<circle r="1.58952" transform="matrix(-1 -8.74228e-08 -8.74228e-08 1 679.681 320.03)" fill="#1828A6"/>
<circle r="1.58952" transform="matrix(-1 -8.74228e-08 -8.74228e-08 1 190.266 320.03)" fill="#1828A6"/>
<circle r="1.58952" transform="matrix(-1 -8.74228e-08 -8.74228e-08 1 434.973 157.84)" fill="#1828A6"/>
<circle r="1.58952" transform="matrix(-1 -8.74228e-08 -8.74228e-08 1 434.973 320.03)" fill="#1828A6"/>
<circle r="1.58952" transform="matrix(-1 -8.74228e-08 -8.74228e-08 1 679.681 184.862)" fill="#1828A6"/>
<circle r="1.58952" transform="matrix(-1 -8.74228e-08 -8.74228e-08 1 190.266 184.862)" fill="#1828A6"/>
<circle r="1.58952" transform="matrix(-1 -8.74228e-08 -8.74228e-08 1 679.681 347.052)" fill="#1828A6"/>
<circle r="1.58952" transform="matrix(-1 -8.74228e-08 -8.74228e-08 1 190.266 347.052)" fill="#1828A6"/>
<circle r="1.58952" transform="matrix(-1 -8.74228e-08 -8.74228e-08 1 434.973 184.862)" fill="#1828A6"/>
<circle r="1.58952" transform="matrix(-1 -8.74228e-08 -8.74228e-08 1 434.974 347.052)" fill="#1828A6"/>
<circle r="1.58952" transform="matrix(-1 -8.74228e-08 -8.74228e-08 1 644.711 49.7536)" fill="#1828A6"/>
<circle r="1.58952" transform="matrix(-1 -8.74228e-08 -8.74228e-08 1 155.297 49.7536)" fill="#1828A6"/>
<circle r="1.58952" transform="matrix(-1 -8.74228e-08 -8.74228e-08 1 644.711 211.943)" fill="#1828A6"/>
<circle r="1.58952" transform="matrix(-1 -8.74228e-08 -8.74228e-08 1 155.297 211.943)" fill="#1828A6"/>
<circle r="1.58952" transform="matrix(-1 -8.74228e-08 -8.74228e-08 1 400.004 49.7536)" fill="#1828A6"/>
<circle r="1.58952" transform="matrix(-1 -8.74228e-08 -8.74228e-08 1 400.004 211.943)" fill="#1828A6"/>
<circle r="1.58952" transform="matrix(-1 -8.74228e-08 -8.74228e-08 1 644.711 103.797)" fill="#1828A6"/>
<circle r="1.58952" transform="matrix(-1 -8.74228e-08 -8.74228e-08 1 155.297 103.797)" fill="#1828A6"/>
<circle r="1.58952" transform="matrix(-1 -8.74228e-08 -8.74228e-08 1 644.711 265.987)" fill="#1828A6"/>
<circle r="1.58952" transform="matrix(-1 -8.74228e-08 -8.74228e-08 1 155.297 265.987)" fill="#1828A6"/>
<circle r="1.58952" transform="matrix(-1 -8.74228e-08 -8.74228e-08 1 400.004 103.797)" fill="#1828A6"/>
<circle r="1.58952" transform="matrix(-1 -8.74228e-08 -8.74228e-08 1 400.004 265.987)" fill="#1828A6"/>
<circle r="1.58952" transform="matrix(-1 -8.74228e-08 -8.74228e-08 1 644.711 76.7753)" fill="#1828A6"/>
<circle r="1.58952" transform="matrix(-1 -8.74228e-08 -8.74228e-08 1 155.297 76.7753)" fill="#1828A6"/>
<circle r="1.58952" transform="matrix(-1 -8.74228e-08 -8.74228e-08 1 644.711 238.965)" fill="#1828A6"/>
<circle r="1.58952" transform="matrix(-1 -8.74228e-08 -8.74228e-08 1 155.297 238.965)" fill="#1828A6"/>
<circle r="1.58952" transform="matrix(-1 -8.74228e-08 -8.74228e-08 1 400.004 76.7753)" fill="#1828A6"/>
<circle r="1.58952" transform="matrix(-1 -8.74228e-08 -8.74228e-08 1 400.004 238.965)" fill="#1828A6"/>
<circle r="1.58952" transform="matrix(-1 -8.74228e-08 -8.74228e-08 1 644.711 130.819)" fill="#1828A6"/>
<circle r="1.58952" transform="matrix(-1 -8.74228e-08 -8.74228e-08 1 155.297 130.819)" fill="#1828A6"/>
<circle r="1.58952" transform="matrix(-1 -8.74228e-08 -8.74228e-08 1 644.711 293.008)" fill="#1828A6"/>
<circle r="1.58952" transform="matrix(-1 -8.74228e-08 -8.74228e-08 1 155.297 293.008)" fill="#1828A6"/>
<circle r="1.58952" transform="matrix(-1 -8.74228e-08 -8.74228e-08 1 400.004 130.819)" fill="#1828A6"/>
<circle r="1.58952" transform="matrix(-1 -8.74228e-08 -8.74228e-08 1 400.004 293.008)" fill="#1828A6"/>
<circle r="1.58952" transform="matrix(-1 -8.74228e-08 -8.74228e-08 1 644.711 157.84)" fill="#1828A6"/>
<circle r="1.58952" transform="matrix(-1 -8.74228e-08 -8.74228e-08 1 155.297 157.84)" fill="#1828A6"/>
<circle r="1.58952" transform="matrix(-1 -8.74228e-08 -8.74228e-08 1 644.711 320.03)" fill="#1828A6"/>
<circle r="1.58952" transform="matrix(-1 -8.74228e-08 -8.74228e-08 1 155.297 320.03)" fill="#1828A6"/>
<circle r="1.58952" transform="matrix(-1 -8.74228e-08 -8.74228e-08 1 400.004 157.84)" fill="#1828A6"/>
<circle r="1.58952" transform="matrix(-1 -8.74228e-08 -8.74228e-08 1 400.004 320.03)" fill="#1828A6"/>
<circle r="1.58952" transform="matrix(-1 -8.74228e-08 -8.74228e-08 1 644.711 184.862)" fill="#1828A6"/>
<circle r="1.58952" transform="matrix(-1 -8.74228e-08 -8.74228e-08 1 155.297 184.862)" fill="#1828A6"/>
<circle r="1.58952" transform="matrix(-1 -8.74228e-08 -8.74228e-08 1 644.711 347.052)" fill="#1828A6"/>
<circle r="1.58952" transform="matrix(-1 -8.74228e-08 -8.74228e-08 1 155.297 347.052)" fill="#1828A6"/>
<circle r="1.58952" transform="matrix(-1 -8.74228e-08 -8.74228e-08 1 400.004 184.862)" fill="#1828A6"/>
<circle r="1.58952" transform="matrix(-1 -8.74228e-08 -8.74228e-08 1 400.004 347.052)" fill="#1828A6"/>
</mask>
<g mask="url(#mask0)">
<rect x="1513.73" y="360.918" width="1664.06" height="490.29" transform="rotate(170.217 1513.73 360.918)" fill="url(#paint1_linear)"/>
</g>
</g>
<defs>
<linearGradient id="paint0_linear" x1="46.3802" y1="463.623" x2="1429.83" y2="-94.3021" gradientUnits="userSpaceOnUse">
<stop stop-color="white"/>
<stop offset="1" stop-color="white" stop-opacity="0"/>
</linearGradient>
<linearGradient id="paint1_linear" x1="2345.76" y1="360.918" x2="2345.76" y2="851.208" gradientUnits="userSpaceOnUse">
<stop offset="0.135417" stop-color="#1F1F5B"/>
<stop offset="1" stop-color="white" stop-opacity="0"/>
</linearGradient>
<clipPath id="clip0">
<rect width="1464" height="362" fill="white"/>
</clipPath>
</defs>
</svg>
